<svg xmlns="http://www.w3.org/2000/svg" class="icon" viewBox="0 -127 1278 1278">
  <path fill="#178E3B" d="M1026.655 388.408h-774.81L360.515 136.63h560.68l105.46 251.778z"/>
  <path fill="#2FA65B" d="M282.315 381.361a13.856 13.856 0 0 1-3.1-27.355l257.978-59.487a13.856 13.856 0 1 1 6.229 26.999l-257.98 59.487a13.908 13.908 0 0 1-3.127.356zm712.96 0a13.816 13.816 0 0 1-5.054-.963L686.927 261.384a13.856 13.856 0 1 1 10.121-25.798l303.294 118.961a13.856 13.856 0 0 1-5.067 26.814z"/>
  <path fill="#203529" d="M1143.662 867.114H139.457a27.711 27.711 0 0 1-27.29-22.881L60.915 554.82a27.896 27.896 0 0 1 .58-12.47 29.48 29.48 0 0 1 1.082-3.154L256.28 70.189A113.181 113.181 0 0 1 361.213 0h557.618a113.287 113.287 0 0 1 104.643 69.516L1220.951 539a27.606 27.606 0 0 1 1.082 3.061 28.147 28.147 0 0 1 .62 13.011l-51.715 289.214a27.711 27.711 0 0 1-27.276 22.83zm-980.98-55.422h957.782l46.186-258.64-194.257-462a57.983 57.983 0 0 0-53.562-35.63H361.213a57.93 57.93 0 0 0-53.747 35.92l-190.6 461.565z"/>
  <path fill="#203529" d="M88.19 577.504h-1.873a27.711 27.711 0 0 1 1.834-55.422 27.711 27.711 0 0 1 0 55.422zm1107.227.04a27.711 27.711 0 1 1 27.474-23.937v.092a27.711 27.711 0 0 1-25.482 23.753c-.686.066-1.332.092-1.992.092z"/>
  <path fill="#203529" d="M88.177 577.597a27.711 27.711 0 1 1 26.894-34.402 27.711 27.711 0 0 1-26.907 34.31zm1107.266 0a27.711 27.711 0 1 1 21.84-10.65 27.711 27.711 0 0 1-21.866 10.65zm-905.54 446.165h-72.578a104.247 104.247 0 0 1-104.247-104.247v-70.598a27.711 27.711 0 0 1 55.423 0v70.598a48.825 48.825 0 0 0 48.824 48.825h72.578a48.825 48.825 0 0 0 48.824-48.825v-70.598a27.711 27.711 0 0 1 55.423 0v70.598a104.247 104.247 0 0 1-104.247 104.247zm776.828.238h-72.578a104.247 104.247 0 0 1-104.247-104.247v-77.5a27.711 27.711 0 0 1 55.423 0v77.5a48.825 48.825 0 0 0 48.824 48.824h72.578a48.825 48.825 0 0 0 48.824-48.824v-86.037a27.711 27.711 0 0 1 55.423 0v86.037A104.247 104.247 0 0 1 1066.731 1024zm-36.29-607.881H255.634a27.711 27.711 0 0 1-25.442-38.717L338.86 125.625a27.711 27.711 0 0 1 25.442-16.732h560.732a27.711 27.711 0 0 1 25.56 17.01l105.462 251.776a27.711 27.711 0 0 1-25.56 38.414zm-732.674-55.423h691.029l-82.237-196.354H382.525zM515.46 95.578H389.083a13.856 13.856 0 0 1 0-27.711H515.46a13.856 13.856 0 0 1 0 27.711zm375.633 0H764.717a13.856 13.856 0 0 1 0-27.711h126.376a13.856 13.856 0 0 1 0 27.711zm-166.32 691.147H557.409a27.711 27.711 0 0 1-7.785-1.122L386.06 737.65H138.995a27.711 27.711 0 1 1 0-55.423h251.051a27.711 27.711 0 0 1 7.786 1.122l163.55 47.9H720.8l163.55-47.9a27.711 27.711 0 0 1 7.785-1.122h264.472a27.711 27.711 0 0 1 0 55.423H896.12l-163.55 47.9a27.711 27.711 0 0 1-7.798 1.175zm423.455-320.105H135.38a13.856 13.856 0 1 1 0-27.712h1012.85a13.856 13.856 0 0 1 0 27.712zm8.38 47.294H123.568a13.856 13.856 0 0 1 0-27.712h1033.04a13.856 13.856 0 0 1 0 27.712z"/>
  <path fill="#203529" d="M303.376 928.185H197.809a13.856 13.856 0 1 1 0-27.712h105.567a13.856 13.856 0 0 1 0 27.712zm779.863 0H977.672a13.856 13.856 0 0 1 0-27.712h105.567a13.856 13.856 0 0 1 0 27.712zM109.132 332.972a27.619 27.619 0 0 1-10.807-2.204l-81.432-34.547a27.711 27.711 0 0 1-14.687-36.328l36.75-86.644a108.206 108.206 0 0 1 141.83-57.323l7.39 3.14a27.711 27.711 0 0 1 14.687 36.329L134.6 316.068a27.711 27.711 0 0 1-25.468 16.904zM64.042 256l30.35 12.906 45.025-106.148a52.85 52.85 0 0 0-49.51 32.119zm1105.313 76.959a27.711 27.711 0 0 1-25.508-16.891l-68.156-160.673a27.711 27.711 0 0 1 14.687-36.342l7.39-3.14a108.14 108.14 0 0 1 141.776 57.323l36.75 86.644a27.711 27.711 0 0 1-14.687 36.328l-81.432 34.547a27.711 27.711 0 0 1-10.82 2.204zm-30.35-170.227 45.037 106.174 30.35-12.906-25.93-61.136a52.783 52.783 0 0 0-49.524-32.145zM335.757 668.939c-38.505 0-74.9-5.807-102.505-16.337-31.802-12.14-49.326-29.968-49.326-50.144s17.51-38.044 49.326-50.144c27.592-10.557 64-16.337 102.505-16.337s74.9 5.806 102.506 16.337c31.802 12.14 49.326 29.967 49.326 50.144s-17.51 38.044-49.326 50.144c-27.606 10.544-64.013 16.337-102.506 16.337zm0-105.343c-35.206 0-68.104 5.16-92.621 14.515-21.76 8.3-31.499 18.184-31.499 24.307s9.739 15.994 31.499 24.307c24.517 9.356 57.415 14.516 92.621 14.516s68.091-5.16 92.622-14.516c21.76-8.3 31.499-18.184 31.499-24.307s-9.739-15.993-31.499-24.307c-24.584-9.369-57.415-14.515-92.622-14.515zm624.337 105.343c-38.506 0-74.9-5.807-102.506-16.337-31.802-12.14-49.326-29.968-49.326-50.144s17.51-38.044 49.326-50.144c27.593-10.557 64-16.337 102.506-16.337s74.9 5.806 102.505 16.337c31.802 12.14 49.326 29.967 49.326 50.144s-17.51 38.044-49.326 50.144c-27.606 10.544-64.013 16.337-102.505 16.337zm0-105.343c-35.207 0-68.104 5.16-92.622 14.515-21.76 8.3-31.499 18.184-31.499 24.307s9.739 15.994 31.499 24.307c24.518 9.356 57.415 14.516 92.622 14.516s68.09-5.16 92.622-14.516c21.76-8.3 31.498-18.184 31.498-24.307s-9.738-15.993-31.498-24.307c-24.532-9.369-57.416-14.515-92.622-14.515z"/>
</svg>