<svg xmlns="http://www.w3.org/2000/svg" aria-hidden="true" style="position:absolute;width:0;height:0;overflow:hidden">
  <defs>
    <symbol id="logo" viewBox="0 0 32 32">
      <path fill="#3470ff" d="M25.707 12.905H6.306l2.721-6.304h14.039l2.641 6.304z" style="fill:var(--color1, #3470ff)"/>
      <path fill="#487df9" d="M7.069 12.729a.346.346 0 0 1-.346-.347c0-.164.114-.301.266-.338h.002l6.46-1.489a.347.347 0 1 1 .158.676h-.002l-6.46 1.489a.327.327 0 0 1-.078.009zm17.852 0a.345.345 0 0 1-.129-.025l.002.001-7.594-2.98a.348.348 0 1 1 .256-.645l-.002-.001 7.594 2.979a.348.348 0 0 1-.123.672h-.004z" style="fill:var(--color2, #487df9)"/>
      <path fill="#0b44cd" d="M28.636 24.892H3.492a.695.695 0 0 1-.683-.569l-.001-.004-1.283-7.247a.68.68 0 0 1 .016-.317l-.001.005a.683.683 0 0 1 .029-.084l-.002.005 4.85-11.744A2.84 2.84 0 0 1 9.039 3.18h13.972c1.171 0 2.176.71 2.609 1.722l.007.019 4.945 11.755c.009.02.018.046.026.072l.001.005a.677.677 0 0 1 .015.331l.001-.004-1.295 7.242a.695.695 0 0 1-.683.572zM4.073 23.504h23.982l1.156-6.476L24.347 5.46a1.456 1.456 0 0 0-1.34-.892H9.039a1.45 1.45 0 0 0-1.338.89l-.004.01-4.772 11.557z" style="fill:var(--color3, #0b44cd)"/>
      <path fill="#0b44cd" d="M2.208 17.64h-.047a.695.695 0 0 1 .023-1.388h.024-.001a.694.694 0 0 1 0 1.388zm27.724.001a.694.694 0 1 1 .688-.596v-.004.002a.696.696 0 0 1-.636.595h-.002c-.017.002-.033.002-.05.002z" style="fill:var(--color3, #0b44cd)"/>
      <path fill="#0b44cd" d="M2.208 17.642a.694.694 0 1 1 .672-.866l.001.005a.694.694 0 0 1-.674.859zm27.725 0a.694.694 0 1 1 .546-.265l.001-.002a.693.693 0 0 1-.547.267h-.001zM7.259 28.814H5.442a2.61 2.61 0 0 1-2.61-2.61v-1.768a.694.694 0 0 1 1.388 0v1.768c0 .675.547 1.223 1.223 1.223H7.26c.675 0 1.223-.547 1.223-1.223v-1.768a.694.694 0 0 1 1.388 0v1.768a2.61 2.61 0 0 1-2.61 2.61zm19.451.006h-1.817a2.61 2.61 0 0 1-2.61-2.61v-1.941a.694.694 0 0 1 1.388 0v1.941c0 .675.547 1.223 1.223 1.223h1.817c.675 0 1.223-.547 1.223-1.223v-2.154a.694.694 0 0 1 1.388 0v2.154a2.61 2.61 0 0 1-2.61 2.61zm-.909-15.221H6.4a.694.694 0 0 1-.635-.974l-.002.004 2.721-6.304a.694.694 0 0 1 .637-.419h14.04c.286 0 .532.174.638.421l.002.005 2.641 6.304a.694.694 0 0 1-.64.962zM7.456 12.211h17.303L22.7 7.294H9.579zm5.451-6.638H9.743a.347.347 0 1 1 0-.694h3.164a.347.347 0 1 1 0 .694zm9.405 0h-3.164a.347.347 0 1 1 0-.694h3.164a.347.347 0 1 1 0 .694zm-4.164 17.306h-4.191a.696.696 0 0 1-.2-.029l.005.001-4.095-1.201H3.481a.694.694 0 0 1 0-1.388h6.286c.069 0 .137.01.2.029l-.005-.001 4.095 1.199h3.992l4.095-1.199a.665.665 0 0 1 .195-.028h6.622a.694.694 0 0 1 0 1.388h-6.522l-4.095 1.199a.665.665 0 0 1-.195.029zm10.603-8.015H3.39a.347.347 0 1 1 0-.694h25.361a.347.347 0 1 1 0 .694zm.209 1.184H3.094a.347.347 0 1 1 0-.694H28.96a.347.347 0 1 1 0 .694z" style="fill:var(--color3, #0b44cd)"/>
      <path fill="#0b44cd" d="M7.596 26.421H4.953a.347.347 0 1 1 0-.694h2.643a.347.347 0 1 1 0 .694zm19.527 0H24.48a.347.347 0 1 1 0-.694h2.643a.347.347 0 1 1 0 .694zM2.733 11.517a.68.68 0 0 1-.275-.057l.004.002-2.039-.865a.694.694 0 0 1-.366-.914l-.002.005.92-2.17A2.715 2.715 0 0 1 4.544 6.09l-.018-.007.185.079a.694.694 0 0 1 .366.914l.002-.005-1.709 4.023a.694.694 0 0 1-.638.423zM1.604 9.59l.76.323 1.127-2.658h-.022c-.543 0-1.01.327-1.214.796l-.003.009zm27.676 1.927a.695.695 0 0 1-.637-.418l-.002-.005-1.707-4.023a.695.695 0 0 1 .363-.908l.005-.002.185-.079A2.709 2.709 0 0 1 31.03 7.5l.007.018.92 2.17a.695.695 0 0 1-.363.908l-.005.002-2.039.865a.68.68 0 0 1-.271.055zm-.76-4.262 1.128 2.659.76-.323-.649-1.531a1.324 1.324 0 0 0-1.217-.805h-.025.001zM8.407 19.93c-.964 0-1.875-.145-2.567-.409-.796-.304-1.235-.75-1.235-1.256s.438-.953 1.235-1.256c.691-.264 1.603-.409 2.567-.409s1.875.145 2.567.409c.796.304 1.235.75 1.235 1.256s-.438.953-1.235 1.256c-.691.264-1.603.409-2.567.409zm0-2.638c-.882 0-1.705.129-2.319.363-.545.208-.789.455-.789.609s.244.4.789.609c.614.234 1.438.363 2.319.363s1.705-.129 2.319-.363c.545-.208.789-.455.789-.609s-.244-.4-.789-.609c-.616-.235-1.438-.363-2.319-.363zM24.04 19.93c-.964 0-1.875-.145-2.567-.409-.796-.304-1.235-.75-1.235-1.256s.438-.953 1.235-1.256c.691-.264 1.602-.409 2.567-.409s1.875.145 2.567.409c.796.304 1.235.75 1.235 1.256s-.438.953-1.235 1.256c-.691.264-1.603.409-2.567.409zm0-2.638c-.882 0-1.705.129-2.319.363-.545.208-.789.455-.789.609s.244.4.789.609c.614.234 1.438.363 2.319.363s1.705-.129 2.319-.363c.545-.208.789-.455.789-.609s-.244-.4-.789-.609c-.614-.235-1.438-.363-2.319-.363z" style="fill:var(--color3, #0b44cd)"/>
    </symbol>
    <symbol id="like" viewBox="0 0 32 32">
      <path stroke-linecap="round" stroke-linejoin="round" stroke-width="2.667" d="M27.787 6.147a7.345 7.345 0 0 0-5.187-2.15 7.33 7.33 0 0 0-5.187 2.15L16 7.56l-1.413-1.413a7.333 7.333 0 0 0-10.374 0 7.333 7.333 0 0 0 0 10.374L16 28.308l11.787-11.787a7.345 7.345 0 0 0 2.15-5.187 7.33 7.33 0 0 0-2.15-5.187z"/>
    </symbol>
  </defs>
</svg>